<svg xmlns="http://www.w3.org/2000/svg" width="200" height="203" viewBox="0 0 200 203" version="1.1">
	<path d="M 81.909 1.488 C 50.129 7.519, 23.718 27.349, 9.972 55.500 C 3.274 69.215, 0.992 77.960, 0.316 92.500 C -0.798 116.437, 6.596 138.788, 22.058 158.226 C 27.965 165.650, 41.784 177.996, 44.191 177.998 C 47.960 178.002, 47.146 175.564, 41.902 171.150 C 24.919 156.854, 14.638 141.247, 8.395 120.284 C 6.150 112.746, 5.774 109.586, 5.742 98 C 5.702 83.341, 7.025 75.786, 11.673 64.147 C 17.604 49.292, 28.993 33.961, 40.700 25.070 C 49.626 18.291, 65.388 10.640, 76 7.936 C 94.123 3.318, 116.078 4.534, 133.103 11.100 C 140.854 14.089, 144.558 14.314, 143.794 11.749 C 143.228 9.847, 132.889 5.153, 124.232 2.868 C 113.989 0.165, 92.560 -0.534, 81.909 1.488 M 157 11.670 C 149.887 16.270, 135.271 23.250, 116.631 30.947 C 98.279 38.525, 93.734 40.796, 83.085 47.708 C 67.922 57.550, 57.069 70.723, 51.537 86 C 48.251 95.075, 47.103 109.417, 48.953 118.294 C 50.857 127.430, 57.275 139.137, 64.549 146.740 C 70.849 153.325, 70.918 153.459, 69.099 155.464 C 68.083 156.584, 65.557 160.088, 63.484 163.250 C 61.412 166.412, 59.431 169, 59.081 169 C 58.731 169, 57.332 168.248, 55.973 167.329 C 33.554 152.176, 19.999 130.746, 16.783 105.369 C 13.256 77.547, 28.769 45.753, 53.757 29.589 C 68.816 19.847, 85.174 15.449, 103.396 16.243 C 109.503 16.509, 117.566 17.525, 121.313 18.501 C 126.633 19.886, 128.385 20.010, 129.313 19.066 C 131.356 16.987, 126.824 14.428, 117.709 12.515 C 111.221 11.153, 106.453 10.865, 96.896 11.256 C 78.381 12.013, 64.609 16.418, 49.664 26.362 C 27.085 41.386, 12.891 66.236, 11.307 93.518 C 10.314 110.618, 15.246 128.461, 25.166 143.657 C 31.153 152.827, 44.525 166.288, 51.833 170.500 C 56.045 172.928, 56.923 173.882, 56.437 175.500 C 52.616 188.204, 52.142 198.571, 55.241 201.669 C 58.012 204.441, 59.233 202.316, 58.500 195.997 C 57.320 185.834, 62.018 172.961, 71.580 160.153 L 75.195 155.311 81.211 157.741 C 84.710 159.155, 90.297 160.404, 94.562 160.726 C 110.674 161.945, 124.628 156.367, 137.603 143.522 C 147.001 134.219, 151.548 126.044, 155.722 110.946 C 158.286 101.671, 158.337 100.867, 158.522 66.500 C 158.717 30.127, 158.789 29.174, 162.223 17.208 C 163.476 12.844, 163.952 9.554, 163.408 9.015 C 162.867 8.478, 160.274 9.553, 157 11.670 M 140.492 26.826 L 133.500 30.500 130.196 39.371 C 125.360 52.359, 126.156 54.031, 133.083 45.431 C 139.504 37.460, 148.506 24.172, 147.897 23.564 C 147.670 23.337, 144.338 24.805, 140.492 26.826 M 147.063 34.987 C 143.652 39.968, 137.311 48.313, 132.973 53.532 C 128.635 58.751, 123.107 65.829, 120.688 69.261 C 116.527 75.165, 109 87.589, 109 88.554 C 109 89.903, 113.595 88.568, 120.022 85.352 C 133.332 78.694, 144.316 65.266, 149.350 49.500 C 151.072 44.109, 154.250 26.916, 153.638 26.305 C 153.433 26.100, 150.474 30.007, 147.063 34.987 M 166 29.610 C 166 30.495, 168.327 33.758, 171.170 36.860 C 181.385 48.004, 187.803 59.984, 192.207 76.129 C 194.085 83.015, 194.477 86.895, 194.417 98 C 194.354 109.685, 193.979 112.710, 191.625 120.500 C 186.130 138.692, 179.487 149.678, 165.935 162.985 C 160.879 167.950, 153.878 173.535, 149.144 176.380 C 139.788 182.003, 124.832 187.409, 114 189.082 C 103.555 190.696, 84.458 189.716, 74.699 187.065 C 66.782 184.914, 65 184.999, 65 187.524 C 65 194.005, 105.548 197.219, 123.932 192.196 C 140.557 187.653, 155.686 179.413, 168.207 168.082 C 180.849 156.640, 192.758 137.019, 197.085 120.500 C 204.743 91.264, 196.282 56.644, 176.156 34.865 C 170.039 28.244, 166 26.155, 166 29.610 M 119.992 35.825 C 113.818 38.832, 110.764 42.687, 108.491 50.343 C 106.733 56.263, 106.665 66.878, 108.349 72.465 L 109.545 76.430 114.232 69.725 C 120.501 60.757, 120.633 60.453, 121.428 53.163 C 121.808 49.677, 123.024 43.896, 124.130 40.316 C 125.235 36.736, 125.992 33.659, 125.812 33.479 C 125.631 33.298, 123.012 34.354, 119.992 35.825 M 163.469 42.050 C 163.112 42.628, 165.052 46.340, 167.780 50.300 C 180.988 69.470, 185.974 89.177, 182.585 108.817 C 179.326 127.702, 170.907 143.339, 157.086 156.179 C 143.919 168.412, 129.564 175.517, 111.808 178.592 C 101.185 180.432, 91.668 179.967, 79.296 177.004 C 71.071 175.034, 68.591 175.542, 70.631 178.778 C 73.783 183.775, 102.260 186.117, 117.391 182.623 C 145.096 176.225, 167.775 158.462, 180.375 133.291 C 186.456 121.144, 188.419 112.443, 188.449 97.500 C 188.483 80.457, 185.187 68.200, 176.855 54.378 C 170.459 43.769, 165.328 39.043, 163.469 42.050 M 99.986 44.289 C 94.374 47.257, 92.111 50.409, 90.413 57.626 C 87.401 70.428, 89.764 82.702, 97.298 93.389 L 99.335 96.279 103.039 88.923 L 106.743 81.567 104.723 77.033 C 101.688 70.226, 101.251 56.361, 103.815 48.250 C 104.901 44.813, 105.458 42, 105.052 42 C 104.647 42, 102.367 43.030, 99.986 44.289 M 78.771 58.250 C 74.336 62.413, 72.849 64.624, 71.589 68.932 C 68.338 80.044, 70.356 97.880, 76.163 109.352 C 78.738 114.441, 86.036 125, 86.977 125 C 87.355 125, 88.160 123.386, 88.766 121.412 C 89.815 117.992, 89.653 117.537, 85.289 111.662 C 82.772 108.273, 79.478 102.800, 77.970 99.500 C 72.925 88.463, 71.715 76.413, 75.727 77.186 C 76.923 77.416, 77.740 79.451, 78.664 84.502 C 80.088 92.281, 86.509 106.251, 90.294 109.806 L 92.729 112.094 94.938 106.652 L 97.147 101.210 93.822 96.853 C 87.509 88.583, 84.649 80.597, 84.193 69.969 C 83.969 64.727, 84.247 58.765, 84.812 56.719 C 85.377 54.674, 85.507 53, 85.102 53 C 84.696 53, 81.848 55.362, 78.771 58.250 M 151.539 57.750 C 150.310 62.739, 142.083 74.708, 136.029 80.312 C 129.545 86.316, 119.232 91.987, 110.929 94.115 L 105.651 95.467 101.826 103.631 C 99.722 108.121, 98 112.066, 98 112.397 C 98 112.729, 100.393 113, 103.318 113 C 120.717 113, 140.492 99.700, 148.657 82.507 C 151.904 75.669, 152.367 73.698, 152.791 64.904 C 153.266 55.036, 152.826 52.525, 151.539 57.750 M 60.737 79 C 55.659 89.120, 54.228 96.268, 55.780 103.750 C 57.833 113.643, 63.486 123.658, 71.629 131.830 C 75.646 135.861, 79.403 138.869, 79.976 138.515 C 80.550 138.160, 81.855 136.240, 82.878 134.246 L 84.737 130.623 80.019 124.561 C 69.215 110.680, 65.890 101.654, 65.076 84 L 64.500 71.500 60.737 79 M 149.703 91.417 C 145.119 98.696, 134.940 107.439, 125.782 111.961 C 118.083 115.763, 115.089 116.554, 100.154 118.723 C 94.828 119.497, 94.801 119.519, 92.486 125 C 89.602 131.830, 89.620 131.841, 104 131.909 C 112.633 131.949, 115.718 131.528, 121.349 129.541 C 130.883 126.176, 138.165 121.526, 144.948 114.469 C 150.384 108.815, 150.820 107.996, 151.941 101.350 C 152.598 97.452, 152.993 92.623, 152.818 90.618 L 152.500 86.974 149.703 91.417 M 56.514 123.250 C 58.084 128.691, 62.761 136.501, 67.759 142.023 C 70.734 145.310, 73.564 148, 74.049 148 C 74.533 148, 75.409 147.105, 75.994 146.010 C 76.922 144.276, 76.153 143.166, 70.012 137.372 C 66.135 133.716, 61.546 128.536, 59.814 125.862 C 56.337 120.497, 55.538 119.864, 56.514 123.250 M 141.497 124.585 C 126.383 135.428, 110.277 139.416, 92.416 136.738 C 87.635 136.021, 87.265 136.123, 86.204 138.452 C 84.869 141.382, 85.036 141.514, 92.581 143.479 C 107.994 147.494, 129.843 143.263, 138.108 134.664 C 140.971 131.686, 147.772 121, 146.804 121 C 146.634 121, 144.245 122.613, 141.497 124.585 M 80.645 148.096 C 79.786 149.322, 79.284 150.651, 79.530 151.049 C 79.776 151.446, 82.870 152.555, 86.407 153.512 C 95.471 155.966, 108.569 155.267, 115.859 151.941 L 121.218 149.496 109.359 149.843 C 98.428 150.163, 90.733 149.137, 83.636 146.414 C 82.832 146.105, 81.524 146.841, 80.645 148.096" stroke="none" fill="black" fill-rule="evenodd"/>
</svg>